<svg width="24" height="24" viewBox="0 0 24 24" fill="none" xmlns="http://www.w3.org/2000/svg">
<path fill-rule="evenodd" clip-rule="evenodd" d="M12 0.5C14.5196 0.5 16.9362 1.50063 18.7178 3.28223C20.4994 5.06382 21.5 7.48044 21.5 10C21.5 13.7009 19.1331 17.0728 16.8633 19.4688C15.7181 20.6775 14.5744 21.6626 13.7178 22.3447C13.2893 22.686 12.9313 22.9521 12.6797 23.1338C12.5539 23.2247 12.4542 23.2944 12.3857 23.3418C12.3515 23.3655 12.3249 23.3841 12.3066 23.3965C12.2976 23.4026 12.29 23.4069 12.2852 23.4102C12.283 23.4116 12.2803 23.4141 12.2803 23.4141L12.2783 23.415L12.2773 23.416C12.1305 23.5139 11.9447 23.5264 11.7881 23.4531L11.7227 23.416L11.7197 23.4141C11.7197 23.4141 11.717 23.4116 11.7148 23.4102C11.71 23.4069 11.7024 23.4026 11.6934 23.3965C11.6751 23.3841 11.6485 23.3655 11.6143 23.3418C11.5458 23.2944 11.4461 23.2247 11.3203 23.1338C11.0687 22.9521 10.7107 22.686 10.2822 22.3447C9.42561 21.6626 8.28189 20.6775 7.13672 19.4688C4.86689 17.0728 2.5 13.7009 2.5 10C2.5 7.48044 3.50063 5.06382 5.28223 3.28223C7.06382 1.50063 9.48044 0.5 12 0.5ZM12 7C10.3431 7 9 8.34315 9 10C9 11.6569 10.3431 13 12 13C13.6569 13 15 11.6569 15 10C15 8.34315 13.6569 7 12 7Z" fill="#212121"/>
</svg>
